{
  "accessors": [
    {
      "bufferView": 2,
      "componentType": 5126,
      "count": 168,
      "max": [
        0.005662698298692703,
        0.05000000074505806,
        0.07500000298023224
      ],
      "min": [
        -0.004999999888241291,
        -0.05000000074505806,
        -0.07500000298023224
      ],
      "type": "VEC3"
    },
    {
      "bufferView": 2,
      "byteOffset": 2016,
      "componentType": 5126,
      "count": 168,
      "max": [
        1.0,
        1.0,
        1.0
      ],
      "min": [
        -1.0,
        -1.0,
        -1.0
      ],
      "type": "VEC3"
    },
    {
      "bufferView": 3,
      "componentType": 5126,
      "count": 168,
      "max": [
        1.0,
        1.0,
        0.6890313625335693,
        1.0
      ],
      "min": [
        -1.0,
        -1.0,
        -0.6890313625335693,
        1.0
      ],
      "type": "VEC4"
    },
    {
      "bufferView": 1,
      "componentType": 5126,
      "count": 168,
      "max": [
        0.9986668825149536,
        1.0
      ],
      "min": [
        0.0,
        0.0
      ],
      "type": "VEC2"
    },
    {
      "bufferView": 1,
      "byteOffset": 1344,
      "componentType": 5126,
      "count": 168,
      "max": [
        0.9986668825149536,
        1.0
      ],
      "min": [
        0.0,
        0.0
      ],
      "type": "VEC2"
    },
    {
      "bufferView": 1,
      "byteOffset": 2688,
      "componentType": 5126,
      "count": 168,
      "max": [
        0.9986668825149536,
        1.0
      ],
      "min": [
        0.0,
        0.0
      ],
      "type": "VEC2"
    },
    {
      "bufferView": 0,
      "componentType": 5125,
      "count": 252,
      "type": "SCALAR"
    },
    {
      "bufferView": 2,
      "byteOffset": 4032,
      "componentType": 5126,
      "count": 4,
      "max": [
        0.0014253105036914349,
        0.032499998807907104,
        0.05793079733848572
      ],
      "min": [
        0.0014252993278205395,
        -0.032499998807907104,
        -0.05806921422481537
      ],
      "type": "VEC3"
    },
    {
      "bufferView": 2,
      "byteOffset": 4080,
      "componentType": 5126,
      "count": 4,
      "max": [
        1.0,
        0.0,
        9.634371167521749e-08
      ],
      "min": [
        1.0,
        0.0,
        9.634371167521749e-08
      ],
      "type": "VEC3"
    },
    {
      "bufferView": 1,
      "byteOffset": 4032,
      "componentType": 5126,
      "count": 4,
      "max": [
        0.9301056861877441,
        1.0
      ],
      "min": [
        0.08649614453315735,
        3.973643103449831e-08
      ],
      "type": "VEC2"
    },
    {
      "bufferView": 0,
      "byteOffset": 1008,
      "componentType": 5125,
      "count": 6,
      "type": "SCALAR"
    },
    {
      "bufferView": 2,
      "byteOffset": 4128,
      "componentType": 5126,
      "count": 86,
      "max": [
        -0.0050724162720143795,
        0.05000000074505806,
        0.07554188370704651
      ],
      "min": [
        -0.06216385215520859,
        -0.05000000074505806,
        -0.07445815205574036
      ],
      "type": "VEC3"
    },
    {
      "bufferView": 2,
      "byteOffset": 5160,
      "componentType": 5126,
      "count": 86,
      "max": [
        1.0,
        1.0,
        1.0
      ],
      "min": [
        -1.0,
        -1.0,
        -1.0
      ],
      "type": "VEC3"
    },
    {
      "bufferView": 3,
      "byteOffset": 2688,
      "componentType": 5126,
      "count": 86,
      "max": [
        1.0,
        1.0,
        0.5062322020530701,
        1.0
      ],
      "min": [
        -0.9999992251396179,
        -1.0,
        -0.5062322616577148,
        1.0
      ],
      "type": "VEC4"
    },
    {
      "bufferView": 1,
      "byteOffset": 4064,
      "componentType": 5126,
      "count": 86,
      "max": [
        0.8601184487342834,
        1.0
      ],
      "min": [
        0.0,
        -2.5112141699423773e-08
      ],
      "type": "VEC2"
    },
    {
      "bufferView": 1,
      "byteOffset": 4752,
      "componentType": 5126,
      "count": 86,
      "max": [
        0.8601184487342834,
        1.0
      ],
      "min": [
        0.0,
        -2.5112141699423773e-08
      ],
      "type": "VEC2"
    },
    {
      "bufferView": 1,
      "byteOffset": 5440,
      "componentType": 5126,
      "count": 86,
      "max": [
        0.8601184487342834,
        1.0
      ],
      "min": [
        0.0,
        -2.5112141699423773e-08
      ],
      "type": "VEC2"
    },
    {
      "bufferView": 0,
      "byteOffset": 1032,
      "componentType": 5125,
      "count": 144,
      "type": "SCALAR"
    },
    {
      "bufferView": 2,
      "byteOffset": 6192,
      "componentType": 5126,
      "count": 229,
      "max": [
        0.004949997644871473,
        0.05085305869579315,
        0.07585306465625763
      ],
      "min": [
        -0.004950002301484346,
        -0.05085305869579315,
        -0.07585306465625763
      ],
      "type": "VEC3"
    },
    {
      "bufferView": 2,
      "byteOffset": 8940,
      "componentType": 5126,
      "count": 229,
      "max": [
        1.0,
        1.0,
        1.0
      ],
      "min": [
        -1.0,
        -1.0,
        -1.0
      ],
      "type": "VEC3"
    },
    {
      "bufferView": 3,
      "byteOffset": 4064,
      "componentType": 5126,
      "count": 229,
      "max": [
        1.0,
        1.0,
        1.0,
        1.0
      ],
      "min": [
        -1.0,
        -1.0,
        -0.707129716873169,
        -1.0
      ],
      "type": "VEC4"
    },
    {
      "bufferView": 1,
      "byteOffset": 6128,
      "componentType": 5126,
      "count": 229,
      "max": [
        0.9999999403953552,
        0.9570720195770264
      ],
      "min": [
        0.0,
        0.0
      ],
      "type": "VEC2"
    },
    {
      "bufferView": 1,
      "byteOffset": 7960,
      "componentType": 5126,
      "count": 229,
      "max": [
        0.9999999403953552,
        0.9570720195770264
      ],
      "min": [
        0.0,
        0.0
      ],
      "type": "VEC2"
    },
    {
      "bufferView": 1,
      "byteOffset": 9792,
      "componentType": 5126,
      "count": 229,
      "max": [
        0.9999999403953552,
        0.9570720195770264
      ],
      "min": [
        0.0,
        0.0
      ],
      "type": "VEC2"
    },
    {
      "bufferView": 0,
      "byteOffset": 1608,
      "componentType": 5125,
      "count": 360,
      "type": "SCALAR"
    }
  ],
  "asset": {
    "extras": {
      "author": "balchinostudio (https://sketchfab.com/balchinostudio)",
      "license": "CC-BY-4.0 (http://creativecommons.org/licenses/by/4.0/)",
      "source": "https://sketchfab.com/3d-models/a-gold-wooden-picture-frame-0f061366cdd6451f9f996dfb5afcb0ce",
      "title": "A Gold Wooden Picture Frame"
    },
    "generator": "Sketchfab-16.31.0",
    "version": "2.0"
  },
  "bufferViews": [
    {
      "buffer": 0,
      "byteLength": 3048,
      "name": "floatBufferViews",
      "target": 34963
    },
    {
      "buffer": 0,
      "byteLength": 11624,
      "byteOffset": 3048,
      "byteStride": 8,
      "name": "floatBufferViews",
      "target": 34962
    },
    {
      "buffer": 0,
      "byteLength": 11688,
      "byteOffset": 14672,
      "byteStride": 12,
      "name": "floatBufferViews",
      "target": 34962
    },
    {
      "buffer": 0,
      "byteLength": 7728,
      "byteOffset": 26360,
      "byteStride": 16,
      "name": "floatBufferViews",
      "target": 34962
    }
  ],
  "buffers": [
    {
      "byteLength": 34088,
      "uri": "scene.bin"
    }
  ],
  "images": [
    {
      "uri": "textures/WoodFrame.002_baseColor.png"
    },
    {
      "uri": "textures/WoodFrame.002_metallicRoughness.png"
    },
    {
      "uri": "textures/WoodFrame.002_emissive.png"
    },
    {
      "uri": "textures/WoodFrame.002_normal.png"
    },
    {
      "uri": "textures/picture.002_baseColor.png"
    },
    {
      "uri": "textures/PictureFrameBack.002_baseColor.png"
    },
    {
      "uri": "textures/PictureFrameBack.002_metallicRoughness.png"
    },
    {
      "uri": "textures/PictureFrameBack.002_emissive.png"
    },
    {
      "uri": "textures/PictureFrameBack.002_normal.png"
    },
    {
      "uri": "textures/GoldTexture.002_baseColor.png"
    },
    {
      "uri": "textures/GoldTexture.002_metallicRoughness.png"
    },
    {
      "uri": "textures/GoldTexture.002_emissive.png"
    },
    {
      "uri": "textures/GoldTexture.002_normal.png"
    }
  ],
  "materials": [
    {
      "doubleSided": true,
      "emissiveFactor": [
        1.0,
        1.0,
        1.0
      ],
      "emissiveTexture": {
        "index": 2
      },
      "name": "WoodFrame.002",
      "normalTexture": {
        "index": 3
      },
      "pbrMetallicRoughness": {
        "baseColorTexture": {
          "index": 0
        },
        "metallicRoughnessTexture": {
          "index": 1
        }
      }
    },
    {
      "doubleSided": true,
      "name": "picture.002",
      "pbrMetallicRoughness": {
        "baseColorTexture": {
          "index": 4
        },
        "metallicFactor": 0.0,
        "roughnessFactor": 0.8211145618000169
      }
    },
    {
      "doubleSided": true,
      "emissiveFactor": [
        1.0,
        1.0,
        1.0
      ],
      "emissiveTexture": {
        "index": 7
      },
      "name": "PictureFrameBack.002",
      "normalTexture": {
        "index": 8
      },
      "pbrMetallicRoughness": {
        "baseColorTexture": {
          "index": 5
        },
        "metallicRoughnessTexture": {
          "index": 6
        }
      }
    },
    {
      "doubleSided": true,
      "emissiveFactor": [
        0.7771452255854494,
        0.7771452255854494,
        0.7771452255854494
      ],
      "emissiveTexture": {
        "index": 11
      },
      "name": "GoldTexture.002",
      "normalTexture": {
        "index": 12
      },
      "pbrMetallicRoughness": {
        "baseColorTexture": {
          "index": 9
        },
        "metallicRoughnessTexture": {
          "index": 10
        }
      }
    }
  ],
  "meshes": [
    {
      "name": "PictureFrame.001_WoodFrame.002_0",
      "primitives": [
        {
          "attributes": {
            "NORMAL": 1,
            "POSITION": 0,
            "TANGENT": 2,
            "TEXCOORD_0": 3,
            "TEXCOORD_1": 4,
            "TEXCOORD_2": 5
          },
          "indices": 6,
          "material": 0,
          "mode": 4
        }
      ]
    },
    {
      "name": "PictureFrame.001_picture.002_0",
      "primitives": [
        {
          "attributes": {
            "NORMAL": 8,
            "POSITION": 7,
            "TEXCOORD_0": 9
          },
          "indices": 10,
          "material": 1,
          "mode": 4
        }
      ]
    },
    {
      "name": "PictureFrame.001_PictureFrameBack.002_0",
      "primitives": [
        {
          "attributes": {
            "NORMAL": 12,
            "POSITION": 11,
            "TANGENT": 13,
            "TEXCOORD_0": 14,
            "TEXCOORD_1": 15,
            "TEXCOORD_2": 16
          },
          "indices": 17,
          "material": 2,
          "mode": 4
        }
      ]
    },
    {
      "name": "PictureFrame.001_GoldTexture.002_0",
      "primitives": [
        {
          "attributes": {
            "NORMAL": 19,
            "POSITION": 18,
            "TANGENT": 20,
            "TEXCOORD_0": 21,
            "TEXCOORD_1": 22,
            "TEXCOORD_2": 23
          },
          "indices": 24,
          "material": 3,
          "mode": 4
        }
      ]
    }
  ],
  "nodes": [
    {
      "children": [
        1
      ],
      "matrix": [
        1.0,
        0.0,
        0.0,
        0.0,
        0.0,
        2.220446049250313e-16,
        -1.0,
        0.0,
        0.0,
        1.0,
        2.220446049250313e-16,
        0.0,
        0.0,
        0.0,
        0.0,
        1.0
      ],
      "name": "Sketchfab_model"
    },
    {
      "children": [
        2
      ],
      "matrix": [
        0.009999999776482582,
        0.0,
        0.0,
        0.0,
        0.0,
        0.0,
        0.009999999776482582,
        0.0,
        0.0,
        -0.009999999776482582,
        0.0,
        0.0,
        0.0,
        0.0,
        0.0,
        1.0
      ],
      "name": "38711e9fdecc4846b2278dac7dc9371e.fbx"
    },
    {
      "children": [
        3
      ],
      "name": "RootNode"
    },
    {
      "children": [
        4,
        5,
        6,
        7
      ],
      "matrix": [
        93.96925423731251,
        34.202013569444674,
        0.0,
        0.0,
        5.572215716620477e-06,
        -1.5309535905672078e-05,
        -99.99999999999866,
        0.0,
        -34.20201356944422,
        93.96925423731125,
        -1.6292066696197e-05,
        0.0,
        -0.00011263964552199468,
        7.201745986938477,
        0.0,
        1.0
      ],
      "name": "PictureFrame.001"
    },
    {
      "mesh": 0,
      "name": "PictureFrame.001_WoodFrame.002_0"
    },
    {
      "mesh": 1,
      "name": "PictureFrame.001_picture.002_0"
    },
    {
      "mesh": 2,
      "name": "PictureFrame.001_PictureFrameBack.002_0"
    },
    {
      "mesh": 3,
      "name": "PictureFrame.001_GoldTexture.002_0"
    }
  ],
  "samplers": [
    {
      "magFilter": 9729,
      "minFilter": 9987,
      "wrapS": 10497,
      "wrapT": 10497
    }
  ],
  "scene": 0,
  "scenes": [
    {
      "name": "Sketchfab_Scene",
      "nodes": [
        0
      ]
    }
  ],
  "textures": [
    {
      "sampler": 0,
      "source": 0
    },
    {
      "sampler": 0,
      "source": 1
    },
    {
      "sampler": 0,
      "source": 2
    },
    {
      "sampler": 0,
      "source": 3
    },
    {
      "sampler": 0,
      "source": 4
    },
    {
      "sampler": 0,
      "source": 5
    },
    {
      "sampler": 0,
      "source": 6
    },
    {
      "sampler": 0,
      "source": 7
    },
    {
      "sampler": 0,
      "source": 8
    },
    {
      "sampler": 0,
      "source": 9
    },
    {
      "sampler": 0,
      "source": 10
    },
    {
      "sampler": 0,
      "source": 11
    },
    {
      "sampler": 0,
      "source": 12
    }
  ]
}
