{
  "accessors": [
    {
      "bufferView": 2,
      "componentType": 5126,
      "count": 2870,
      "max": [
        1.532230019569397,
        1.2389570474624634,
        1.8833179473876953
      ],
      "min": [
        -1.103340983390808,
        -1.1891239881515503,
        -0.08238399773836136
      ],
      "type": "VEC3"
    },
    {
      "bufferView": 2,
      "byteOffset": 34440,
      "componentType": 5126,
      "count": 2870,
      "max": [
        0.9999635815620422,
        0.99973464012146,
        0.999962329864502
      ],
      "min": [
        -0.9989593625068665,
        -0.9926491379737854,
        -0.16819101572036743
      ],
      "type": "VEC3"
    },
    {
      "bufferView": 3,
      "componentType": 5126,
      "count": 2870,
      "max": [
        0.9961639046669006,
        0.9998396635055542,
        0.9999638795852661,
        1.0
      ],
      "min": [
        -0.9999682903289795,
        -0.9975985884666443,
        -0.9872355461120605,
        -1.0
      ],
      "type": "VEC4"
    },
    {
      "bufferView": 1,
      "componentType": 5126,
      "count": 2870,
      "max": [
        0.9895139932632446,
        0.5678390264511108
      ],
      "min": [
        0.00434499979019165,
        0.42959800362586975
      ],
      "type": "VEC2"
    },
    {
      "bufferView": 0,
      "componentType": 5125,
      "count": 9936,
      "type": "SCALAR"
    },
    {
      "bufferView": 2,
      "byteOffset": 68880,
      "componentType": 5126,
      "count": 1652,
      "max": [
        1.2117799520492554,
        1.2244189977645874,
        1.9848320484161377
      ],
      "min": [
        -1.1334400177001953,
        -1.2420669794082642,
        -0.16918399930000305
      ],
      "type": "VEC3"
    },
    {
      "bufferView": 2,
      "byteOffset": 88704,
      "componentType": 5126,
      "count": 1652,
      "max": [
        0.9925868511199951,
        0.9997886419296265,
        0.9999278783798218
      ],
      "min": [
        -0.9999701380729675,
        -0.9992327690124512,
        -0.12482201308012009
      ],
      "type": "VEC3"
    },
    {
      "bufferView": 3,
      "byteOffset": 45920,
      "componentType": 5126,
      "count": 1652,
      "max": [
        0.9946502447128296,
        0.987034797668457,
        0.9999547004699707,
        1.0
      ],
      "min": [
        -0.9986200332641602,
        -0.9988267421722412,
        -0.9734285473823547,
        1.0
      ],
      "type": "VEC4"
    },
    {
      "bufferView": 1,
      "byteOffset": 22960,
      "componentType": 5126,
      "count": 1652,
      "max": [
        0.9895139932632446,
        0.5678390264511108
      ],
      "min": [
        0.00434499979019165,
        0.42959800362586975
      ],
      "type": "VEC2"
    },
    {
      "bufferView": 0,
      "byteOffset": 39744,
      "componentType": 5125,
      "count": 5724,
      "type": "SCALAR"
    },
    {
      "bufferView": 2,
      "byteOffset": 108528,
      "componentType": 5126,
      "count": 859,
      "max": [
        0.5426830053329468,
        0.5426830053329468,
        0.8874059915542603
      ],
      "min": [
        -0.5426830053329468,
        -0.5426830053329468,
        0.005880999844521284
      ],
      "type": "VEC3"
    },
    {
      "bufferView": 2,
      "byteOffset": 118836,
      "componentType": 5126,
      "count": 859,
      "max": [
        1.0,
        1.0,
        1.0
      ],
      "min": [
        -1.0,
        -1.0,
        -1.0
      ],
      "type": "VEC3"
    },
    {
      "bufferView": 3,
      "byteOffset": 72352,
      "componentType": 5126,
      "count": 859,
      "max": [
        0.9999830722808838,
        0.9965159296989441,
        0.9810996651649475,
        1.0
      ],
      "min": [
        -0.9970276951789856,
        -0.9981458783149719,
        -0.9998021721839905,
        1.0
      ],
      "type": "VEC4"
    },
    {
      "bufferView": 1,
      "byteOffset": 36176,
      "componentType": 5126,
      "count": 859,
      "max": [
        0.9901729822158813,
        0.8313900232315063
      ],
      "min": [
        0.009827000088989735,
        0.009827000088989735
      ],
      "type": "VEC2"
    },
    {
      "bufferView": 0,
      "byteOffset": 62640,
      "componentType": 5125,
      "count": 3840,
      "type": "SCALAR"
    }
  ],
  "asset": {
    "extras": {
      "author": "aqpetteri (https://sketchfab.com/aqpetteri)",
      "license": "CC-BY-4.0 (http://creativecommons.org/licenses/by/4.0/)",
      "source": "https://sketchfab.com/3d-models/peace-lily-9036c0e1761b471aa4e8035d8e972308",
      "title": "Peace Lily"
    },
    "generator": "Sketchfab-12.68.0",
    "version": "2.0"
  },
  "bufferViews": [
    {
      "buffer": 0,
      "byteLength": 78000,
      "name": "floatBufferViews",
      "target": 34963
    },
    {
      "buffer": 0,
      "byteLength": 43048,
      "byteOffset": 78000,
      "byteStride": 8,
      "name": "floatBufferViews",
      "target": 34962
    },
    {
      "buffer": 0,
      "byteLength": 129144,
      "byteOffset": 121048,
      "byteStride": 12,
      "name": "floatBufferViews",
      "target": 34962
    },
    {
      "buffer": 0,
      "byteLength": 86096,
      "byteOffset": 250192,
      "byteStride": 16,
      "name": "floatBufferViews",
      "target": 34962
    }
  ],
  "buffers": [
    {
      "byteLength": 336288,
      "uri": "scene.bin"
    }
  ],
  "images": [
    {
      "uri": "textures/material_baseColor.jpeg"
    },
    {
      "uri": "textures/material_metallicRoughness.png"
    },
    {
      "uri": "textures/material_normal.png"
    },
    {
      "uri": "textures/Leaf2_baseColor.png"
    },
    {
      "uri": "textures/Leaf2_metallicRoughness.png"
    },
    {
      "uri": "textures/Leaf2_normal.png"
    },
    {
      "uri": "textures/Leaf1_baseColor.png"
    },
    {
      "uri": "textures/Leaf1_metallicRoughness.png"
    },
    {
      "uri": "textures/Leaf1_normal.png"
    }
  ],
  "materials": [
    {
      "doubleSided": true,
      "name": "material",
      "normalTexture": {
        "index": 2
      },
      "pbrMetallicRoughness": {
        "baseColorTexture": {
          "index": 0
        },
        "metallicFactor": 0.0,
        "metallicRoughnessTexture": {
          "index": 1
        }
      }
    },
    {
      "alphaMode": "BLEND",
      "doubleSided": true,
      "name": "Leaf2",
      "normalTexture": {
        "index": 5
      },
      "pbrMetallicRoughness": {
        "baseColorTexture": {
          "index": 3
        },
        "metallicFactor": 0.0,
        "metallicRoughnessTexture": {
          "index": 4
        }
      }
    },
    {
      "alphaMode": "BLEND",
      "doubleSided": true,
      "name": "Leaf1",
      "normalTexture": {
        "index": 8
      },
      "pbrMetallicRoughness": {
        "baseColorTexture": {
          "index": 6
        },
        "metallicFactor": 0.0,
        "metallicRoughnessTexture": {
          "index": 7
        }
      }
    }
  ],
  "meshes": [
    {
      "name": "defaultMaterial",
      "primitives": [
        {
          "attributes": {
            "NORMAL": 1,
            "POSITION": 0,
            "TANGENT": 2,
            "TEXCOORD_0": 3
          },
          "indices": 4,
          "material": 1,
          "mode": 4
        }
      ]
    },
    {
      "name": "defaultMaterial",
      "primitives": [
        {
          "attributes": {
            "NORMAL": 6,
            "POSITION": 5,
            "TANGENT": 7,
            "TEXCOORD_0": 8
          },
          "indices": 9,
          "material": 2,
          "mode": 4
        }
      ]
    },
    {
      "name": "defaultMaterial",
      "primitives": [
        {
          "attributes": {
            "NORMAL": 11,
            "POSITION": 10,
            "TANGENT": 12,
            "TEXCOORD_0": 13
          },
          "indices": 14,
          "material": 0,
          "mode": 4
        }
      ]
    }
  ],
  "nodes": [
    {
      "children": [
        1
      ],
      "matrix": [
        1.0,
        0.0,
        0.0,
        0.0,
        0.0,
        2.220446049250313e-16,
        -1.0,
        0.0,
        0.0,
        1.0,
        2.220446049250313e-16,
        0.0,
        0.0,
        0.0,
        0.0,
        1.0
      ],
      "name": "Sketchfab_model"
    },
    {
      "children": [
        2,
        5
      ],
      "matrix": [
        1.0,
        0.0,
        0.0,
        0.0,
        0.0,
        -4.371139006309477e-08,
        0.999999999999999,
        0.0,
        0.0,
        -0.999999999999999,
        -4.371139006309477e-08,
        0.0,
        0.0,
        0.0,
        0.0,
        1.0
      ],
      "name": "Collada visual scene group"
    },
    {
      "children": [
        3,
        4
      ],
      "matrix": [
        100.0,
        0.0,
        0.0,
        0.0,
        0.0,
        -1.6e-05,
        -100.0,
        0.0,
        0.0,
        100.0,
        -1.6e-05,
        0.0,
        0.74701,
        74.132774,
        -0.173815,
        1.0
      ],
      "name": "Plane.151"
    },
    {
      "mesh": 0,
      "name": "defaultMaterial"
    },
    {
      "mesh": 1,
      "name": "defaultMaterial"
    },
    {
      "children": [
        6
      ],
      "matrix": [
        100.0,
        0.0,
        0.0,
        0.0,
        0.0,
        -1.6e-05,
        -100.0,
        0.0,
        0.0,
        100.0,
        -1.6e-05,
        0.0,
        0.0,
        0.566289,
        0.0,
        1.0
      ],
      "name": "Cylinder"
    },
    {
      "mesh": 2,
      "name": "defaultMaterial"
    }
  ],
  "samplers": [
    {
      "magFilter": 9729,
      "minFilter": 9987,
      "wrapS": 10497,
      "wrapT": 10497
    }
  ],
  "scene": 0,
  "scenes": [
    {
      "name": "Sketchfab_Scene",
      "nodes": [
        0
      ]
    }
  ],
  "textures": [
    {
      "sampler": 0,
      "source": 0
    },
    {
      "sampler": 0,
      "source": 1
    },
    {
      "sampler": 0,
      "source": 2
    },
    {
      "sampler": 0,
      "source": 3
    },
    {
      "sampler": 0,
      "source": 4
    },
    {
      "sampler": 0,
      "source": 5
    },
    {
      "sampler": 0,
      "source": 6
    },
    {
      "sampler": 0,
      "source": 7
    },
    {
      "sampler": 0,
      "source": 8
    }
  ]
}
