{
  "accessors": [
    {
      "bufferView": 2,
      "componentType": 5126,
      "count": 110,
      "max": [
        9.293588638305664,
        8.631919860839844,
        -3.2551679611206055
      ],
      "min": [
        -8.180582046508789,
        -20.771656036376953,
        -23.412511825561523
      ],
      "type": "VEC3"
    },
    {
      "bufferView": 2,
      "byteOffset": 1320,
      "componentType": 5126,
      "count": 110,
      "max": [
        0.36437055468559265,
        0.9990805387496948,
        0.9999184012413025
      ],
      "min": [
        -0.02950158156454563,
        -0.21403148770332336,
        -0.06669078767299652
      ],
      "type": "VEC3"
    },
    {
      "bufferView": 3,
      "componentType": 5126,
      "count": 110,
      "max": [
        0.9995808601379395,
        0.9999560713768005,
        0.21585315465927124,
        1.0
      ],
      "min": [
        -0.13051286339759827,
        -0.3650219142436981,
        -0.9375898838043213,
        1.0
      ],
      "type": "VEC4"
    },
    {
      "bufferView": 1,
      "componentType": 5126,
      "count": 110,
      "max": [
        0.9465219378471375,
        0.9994999766349792
      ],
      "min": [
        0.0005000000237487257,
        0.0005000000237487257
      ],
      "type": "VEC2"
    },
    {
      "bufferView": 0,
      "componentType": 5125,
      "count": 480,
      "type": "SCALAR"
    }
  ],
  "asset": {
    "extras": {
      "author": "Sophie (https://sketchfab.com/Sofi_EX)",
      "license": "CC-BY-4.0 (http://creativecommons.org/licenses/by/4.0/)",
      "source": "https://sketchfab.com/3d-models/blanket-ff91bcd9854e453dafc069321396225a",
      "title": "Blanket"
    },
    "generator": "Sketchfab-15.30.0",
    "version": "2.0"
  },
  "bufferViews": [
    {
      "buffer": 0,
      "byteLength": 1920,
      "name": "floatBufferViews",
      "target": 34963
    },
    {
      "buffer": 0,
      "byteLength": 880,
      "byteOffset": 1920,
      "byteStride": 8,
      "name": "floatBufferViews",
      "target": 34962
    },
    {
      "buffer": 0,
      "byteLength": 2640,
      "byteOffset": 2800,
      "byteStride": 12,
      "name": "floatBufferViews",
      "target": 34962
    },
    {
      "buffer": 0,
      "byteLength": 1760,
      "byteOffset": 5440,
      "byteStride": 16,
      "name": "floatBufferViews",
      "target": 34962
    }
  ],
  "buffers": [
    {
      "byteLength": 7200,
      "uri": "scene.bin"
    }
  ],
  "images": [
    {
      "uri": "textures/Blanket_baseColor.jpeg"
    },
    {
      "uri": "textures/Blanket_metallicRoughness.png"
    },
    {
      "uri": "textures/Blanket_normal.png"
    }
  ],
  "materials": [
    {
      "doubleSided": true,
      "name": "Blanket",
      "normalTexture": {
        "index": 2
      },
      "pbrMetallicRoughness": {
        "baseColorTexture": {
          "index": 0
        },
        "metallicRoughnessTexture": {
          "index": 1
        }
      }
    }
  ],
  "meshes": [
    {
      "name": "Blanket_Blanket_0",
      "primitives": [
        {
          "attributes": {
            "NORMAL": 1,
            "POSITION": 0,
            "TANGENT": 2,
            "TEXCOORD_0": 3
          },
          "indices": 4,
          "material": 0,
          "mode": 4
        }
      ]
    }
  ],
  "nodes": [
    {
      "children": [
        1
      ],
      "matrix": [
        0.10075127333402634,
        0.0,
        0.0,
        0.0,
        0.0,
        2.237127668314772e-17,
        -0.10075127333402634,
        0.0,
        0.0,
        0.10075127333402634,
        2.237127668314772e-17,
        0.0,
        0.0,
        0.0,
        0.0,
        1.0
      ],
      "name": "Sketchfab_model"
    },
    {
      "children": [
        2
      ],
      "matrix": [
        1.0,
        0.0,
        0.0,
        0.0,
        0.0,
        0.0,
        1.0,
        0.0,
        0.0,
        -1.0,
        0.0,
        0.0,
        0.0,
        0.0,
        0.0,
        1.0
      ],
      "name": "e645f2c20bd84a52b8d0b615d17c7a0f.fbx"
    },
    {
      "children": [
        3
      ],
      "name": "RootNode"
    },
    {
      "children": [
        4
      ],
      "matrix": [
        -1.2502519955777551,
        -1.5508217798240437e-16,
        0.014207078155128592,
        0.0,
        0.011362636770480383,
        -2.220445784552517e-16,
        0.9999353239420323,
        0.0,
        -1.5422642748207195e-16,
        1.2792155742645261,
        4.260643752022707e-16,
        0.0,
        0.0,
        0.0,
        0.0,
        1.0
      ],
      "name": "Blanket"
    },
    {
      "children": [
        5
      ],
      "matrix": [
        1.0,
        0.0,
        -0.0,
        0.0,
        0.0,
        1.0,
        0.0,
        0.0,
        0.0,
        0.0,
        1.0,
        0.0,
        -0.5565029382705688,
        6.0698676109313965,
        13.33383846282959,
        1.0
      ],
      "name": "Object_4"
    },
    {
      "mesh": 0,
      "name": "Blanket_Blanket_0"
    }
  ],
  "samplers": [
    {
      "magFilter": 9729,
      "minFilter": 9987,
      "wrapS": 10497,
      "wrapT": 10497
    }
  ],
  "scene": 0,
  "scenes": [
    {
      "name": "Sketchfab_Scene",
      "nodes": [
        0
      ]
    }
  ],
  "textures": [
    {
      "sampler": 0,
      "source": 0
    },
    {
      "sampler": 0,
      "source": 1
    },
    {
      "sampler": 0,
      "source": 2
    }
  ]
}
