{
  "accessors": [
    {
      "bufferView": 2,
      "componentType": 5126,
      "count": 5506,
      "max": [
        4.7035980224609375,
        4.458739757537842,
        4.324653625488281
      ],
      "min": [
        -3.3015410900115967,
        -9.394712448120117,
        -4.324653148651123
      ],
      "type": "VEC3"
    },
    {
      "bufferView": 2,
      "byteOffset": 66072,
      "componentType": 5126,
      "count": 5506,
      "type": "VEC3"
    },
    {
      "bufferView": 3,
      "componentType": 5126,
      "count": 5506,
      "type": "VEC4"
    },
    {
      "bufferView": 1,
      "componentType": 5126,
      "count": 5506,
      "type": "VEC2"
    },
    {
      "bufferView": 0,
      "componentType": 5125,
      "count": 18876,
      "type": "SCALAR"
    }
  ],
  "asset": {
    "generator": "fab-model-conversion",
    "version": "2.0"
  },
  "bufferViews": [
    {
      "buffer": 0,
      "byteLength": 75504,
      "target": 34963
    },
    {
      "buffer": 0,
      "byteLength": 44048,
      "byteOffset": 75504,
      "byteStride": 8,
      "target": 34962
    },
    {
      "buffer": 0,
      "byteLength": 132144,
      "byteOffset": 119552,
      "byteStride": 12,
      "target": 34962
    },
    {
      "buffer": 0,
      "byteLength": 88096,
      "byteOffset": 251696,
      "byteStride": 16,
      "target": 34962
    }
  ],
  "buffers": [
    {
      "byteLength": 339792,
      "uri": "scene.bin"
    }
  ],
  "images": [
    {
      "uri": "textures/OF_Chair_01_T_baseColor.png"
    },
    {
      "uri": "textures/OF_Chair_01_T_metallicRoughness.png"
    },
    {
      "uri": "textures/OF_Chair_01_T_normal.png"
    }
  ],
  "materials": [
    {
      "doubleSided": true,
      "name": "OF_Chair_01_T",
      "normalTexture": {
        "index": 2
      },
      "occlusionTexture": {
        "index": 1
      },
      "pbrMetallicRoughness": {
        "baseColorTexture": {
          "index": 0
        },
        "metallicRoughnessTexture": {
          "index": 1
        }
      }
    }
  ],
  "meshes": [
    {
      "name": "OfChair_LP_01_OF_Chair_01_T_0",
      "primitives": [
        {
          "attributes": {
            "NORMAL": 1,
            "POSITION": 0,
            "TANGENT": 2,
            "TEXCOORD_0": 3
          },
          "indices": 4,
          "material": 0,
          "mode": 4
        }
      ]
    }
  ],
  "nodes": [
    {
      "children": [
        1
      ],
      "matrix": [
        1.0,
        0.0,
        0.0,
        0.0,
        0.0,
        2.220446049250313e-16,
        -1.0,
        0.0,
        0.0,
        1.0,
        2.220446049250313e-16,
        0.0,
        0.0,
        0.0,
        0.0,
        1.0
      ],
      "name": "Sketchfab_model"
    },
    {
      "children": [
        2
      ],
      "matrix": [
        0.02539999969303608,
        0.0,
        0.0,
        0.0,
        0.0,
        0.0,
        0.02539999969303608,
        0.0,
        0.0,
        -0.02539999969303608,
        0.0,
        0.0,
        0.0,
        0.0,
        0.0,
        1.0
      ],
      "name": "b4e6d159cf7244159fa9ee30586aa6f0.fbx"
    },
    {
      "children": [
        3
      ],
      "name": "RootNode"
    },
    {
      "children": [
        4
      ],
      "matrix": [
        -0.9999999999999964,
        1.2246467991473475e-16,
        -8.742277669594045e-08,
        0.0,
        3.943835589058462e-15,
        0.999999999999999,
        -4.371138796511324e-08,
        0.0,
        8.742277669594037e-08,
        -4.371138796511341e-08,
        -0.9999999999999956,
        0.0,
        0.0,
        0.0,
        -1.9182532184913725e-07,
        1.0
      ],
      "name": "OfChair_LP_01"
    },
    {
      "children": [
        5
      ],
      "matrix": [
        1.0,
        0.0,
        -0.0,
        0.0,
        0.0,
        1.0,
        0.0,
        0.0,
        0.0,
        0.0,
        1.0,
        0.0,
        -0.7010283470153809,
        9.394111633300781,
        -5.411691290646559e-07,
        1.0
      ],
      "name": "Object_4"
    },
    {
      "mesh": 0,
      "name": "OfChair_LP_01_OF_Chair_01_T_0"
    }
  ],
  "samplers": [
    {
      "magFilter": 9729,
      "minFilter": 9987,
      "wrapS": 10497,
      "wrapT": 10497
    }
  ],
  "scene": 0,
  "scenes": [
    {
      "name": "Sketchfab_Scene",
      "nodes": [
        0
      ]
    }
  ],
  "textures": [
    {
      "sampler": 0,
      "source": 0
    },
    {
      "sampler": 0,
      "source": 1
    },
    {
      "sampler": 0,
      "source": 2
    }
  ]
}
