{
  "accessors": [
    {
      "bufferView": 2,
      "componentType": 5126,
      "count": 40701,
      "max": [
        0.12738513946533203,
        0.07590103894472122,
        0.07545502483844757
      ],
      "min": [
        -0.07590103149414063,
        -0.07590103149414063,
        -0.07639040797948837
      ],
      "type": "VEC3"
    },
    {
      "bufferView": 2,
      "byteOffset": 488412,
      "componentType": 5126,
      "count": 40701,
      "max": [
        1.0,
        1.0,
        1.0
      ],
      "min": [
        -1.0,
        -1.0,
        -1.0
      ],
      "type": "VEC3"
    },
    {
      "bufferView": 3,
      "componentType": 5126,
      "count": 40701,
      "max": [
        0.9999367594718933,
        0.9999371767044067,
        0.8392767906188965,
        1.0
      ],
      "min": [
        -0.9999922513961792,
        -0.9999643564224243,
        -1.0,
        1.0
      ],
      "type": "VEC4"
    },
    {
      "bufferView": 1,
      "componentType": 5126,
      "count": 40701,
      "max": [
        0.9967945218086243,
        0.8860494494438171
      ],
      "min": [
        0.0032055035699158907,
        0.003205508692190051
      ],
      "type": "VEC2"
    },
    {
      "bufferView": 1,
      "byteOffset": 325608,
      "componentType": 5126,
      "count": 40701,
      "max": [
        0.9967945218086243,
        0.8860494494438171
      ],
      "min": [
        0.0032055035699158907,
        0.003205508692190051
      ],
      "type": "VEC2"
    },
    {
      "bufferView": 1,
      "byteOffset": 651216,
      "componentType": 5126,
      "count": 40701,
      "max": [
        0.9967945218086243,
        0.8860494494438171
      ],
      "min": [
        0.0032055035699158907,
        0.003205508692190051
      ],
      "type": "VEC2"
    },
    {
      "bufferView": 0,
      "componentType": 5125,
      "count": 229632,
      "type": "SCALAR"
    }
  ],
  "asset": {
    "extras": {
      "author": "Ane07 (https://sketchfab.com/aniesha1203)",
      "license": "SKETCHFAB Standard (https://sketchfab.com/licenses)",
      "source": "https://sketchfab.com/3d-models/red-mug-bdf703f536454fe9bae49000dbb73d26",
      "title": "Red Mug"
    },
    "generator": "Sketchfab-16.85.0",
    "version": "2.0"
  },
  "bufferViews": [
    {
      "buffer": 0,
      "byteLength": 918528,
      "name": "floatBufferViews",
      "target": 34963
    },
    {
      "buffer": 0,
      "byteLength": 976824,
      "byteOffset": 918528,
      "byteStride": 8,
      "name": "floatBufferViews",
      "target": 34962
    },
    {
      "buffer": 0,
      "byteLength": 976824,
      "byteOffset": 1895352,
      "byteStride": 12,
      "name": "floatBufferViews",
      "target": 34962
    },
    {
      "buffer": 0,
      "byteLength": 651216,
      "byteOffset": 2872176,
      "byteStride": 16,
      "name": "floatBufferViews",
      "target": 34962
    }
  ],
  "buffers": [
    {
      "byteLength": 3523392,
      "uri": "scene.bin"
    }
  ],
  "images": [
    {
      "uri": "textures/Material_baseColor.png"
    },
    {
      "uri": "textures/Material_metallicRoughness.png"
    },
    {
      "uri": "textures/Material_normal.png"
    }
  ],
  "materials": [
    {
      "doubleSided": true,
      "name": "Material",
      "normalTexture": {
        "index": 2
      },
      "occlusionTexture": {
        "index": 1
      },
      "pbrMetallicRoughness": {
        "baseColorTexture": {
          "index": 0
        },
        "metallicRoughnessTexture": {
          "index": 1
        }
      }
    }
  ],
  "meshes": [
    {
      "name": "mug_Material_0",
      "primitives": [
        {
          "attributes": {
            "NORMAL": 1,
            "POSITION": 0,
            "TANGENT": 2,
            "TEXCOORD_0": 3,
            "TEXCOORD_1": 4,
            "TEXCOORD_2": 5
          },
          "indices": 6,
          "material": 0,
          "mode": 4
        }
      ]
    }
  ],
  "nodes": [
    {
      "children": [
        1
      ],
      "matrix": [
        1.0,
        0.0,
        0.0,
        0.0,
        0.0,
        2.220446049250313e-16,
        -1.0,
        0.0,
        0.0,
        1.0,
        2.220446049250313e-16,
        0.0,
        0.0,
        0.0,
        0.0,
        1.0
      ],
      "name": "Sketchfab_model"
    },
    {
      "children": [
        2
      ],
      "matrix": [
        0.009999999776482582,
        0.0,
        0.0,
        0.0,
        0.0,
        0.0,
        0.009999999776482582,
        0.0,
        0.0,
        -0.009999999776482582,
        0.0,
        0.0,
        0.0,
        0.0,
        0.0,
        1.0
      ],
      "name": "ca85e3cafc934d7fbeec983cf9874157.fbx"
    },
    {
      "children": [
        3
      ],
      "name": "RootNode"
    },
    {
      "children": [
        4
      ],
      "matrix": [
        76.23413772793523,
        3.0287899299707988e-06,
        -64.71751111467586,
        0.0,
        -64.7175111146743,
        -1.8863301121108123e-05,
        -76.23413772793428,
        0.0,
        -1.4516830887378873e-05,
        99.99999999999818,
        -1.2420117490030691e-05,
        0.0,
        -5.383886337280273,
        7.386651515960693,
        0.0,
        1.0
      ],
      "name": "mug"
    },
    {
      "mesh": 0,
      "name": "mug_Material_0"
    }
  ],
  "samplers": [
    {
      "magFilter": 9729,
      "minFilter": 9987,
      "wrapS": 10497,
      "wrapT": 10497
    }
  ],
  "scene": 0,
  "scenes": [
    {
      "name": "Sketchfab_Scene",
      "nodes": [
        0
      ]
    }
  ],
  "textures": [
    {
      "sampler": 0,
      "source": 0
    },
    {
      "sampler": 0,
      "source": 1
    },
    {
      "sampler": 0,
      "source": 2
    }
  ]
}
