{
  "accessors": [
    {
      "bufferView": 2,
      "componentType": 5126,
      "count": 5126,
      "max": [
        0.49063825607299805,
        0.49063652753829956,
        0.5
      ],
      "min": [
        -0.5319096446037292,
        -0.7458257079124451,
        -0.5837889909744263
      ],
      "type": "VEC3"
    },
    {
      "bufferView": 2,
      "byteOffset": 61512,
      "componentType": 5126,
      "count": 5126,
      "max": [
        1.0,
        0.9999999403953552,
        1.0
      ],
      "min": [
        -1.0,
        -0.9999999403953552,
        -1.0
      ],
      "type": "VEC3"
    },
    {
      "bufferView": 1,
      "componentType": 5126,
      "count": 5126,
      "max": [
        0.9396671652793884,
        0.9828974008560181
      ],
      "min": [
        0.035326942801475525,
        0.017796069383621216
      ],
      "type": "VEC2"
    },
    {
      "bufferView": 0,
      "componentType": 5125,
      "count": 7752,
      "type": "SCALAR"
    }
  ],
  "asset": {
    "extras": {
      "author": "MEDOMAI (https://sketchfab.com/medomailab)",
      "license": "CC-BY-4.0 (http://creativecommons.org/licenses/by/4.0/)",
      "source": "https://sketchfab.com/3d-models/coffee-cup-87fc1f649a434120b0d420f2eec45edc",
      "title": "Coffee Cup"
    },
    "generator": "Sketchfab-15.47.0",
    "version": "2.0"
  },
  "bufferViews": [
    {
      "buffer": 0,
      "byteLength": 31008,
      "name": "floatBufferViews",
      "target": 34963
    },
    {
      "buffer": 0,
      "byteLength": 41008,
      "byteOffset": 31008,
      "byteStride": 8,
      "name": "floatBufferViews",
      "target": 34962
    },
    {
      "buffer": 0,
      "byteLength": 123024,
      "byteOffset": 72016,
      "byteStride": 12,
      "name": "floatBufferViews",
      "target": 34962
    }
  ],
  "buffers": [
    {
      "byteLength": 195040,
      "uri": "scene.bin"
    }
  ],
  "extensionsUsed": [
    "KHR_materials_clearcoat",
    "KHR_materials_specular"
  ],
  "materials": [
    {
      "doubleSided": true,
      "extensions": {
        "KHR_materials_clearcoat": {
          "clearcoatFactor": 1.0,
          "clearcoatRoughnessFactor": 0.35783870941350737
        },
        "KHR_materials_specular": {
          "specularColorFactor": [
            1.0,
            1.0,
            1.0
          ],
          "specularFactor": 0.6019063405540964
        }
      },
      "name": "Material.005",
      "pbrMetallicRoughness": {
        "metallicFactor": 0.0,
        "roughnessFactor": 0.0
      }
    }
  ],
  "meshes": [
    {
      "name": "Object_0",
      "primitives": [
        {
          "attributes": {
            "NORMAL": 1,
            "POSITION": 0,
            "TEXCOORD_0": 2
          },
          "indices": 3,
          "material": 0,
          "mode": 4
        }
      ]
    }
  ],
  "nodes": [
    {
      "children": [
        1
      ],
      "matrix": [
        0.11319208145141602,
        0.0,
        0.0,
        0.0,
        0.0,
        2.5133691006521634e-17,
        -0.11319208145141602,
        0.0,
        0.0,
        0.11319208145141602,
        2.5133691006521634e-17,
        0.0,
        0.0,
        0.0,
        0.0,
        1.0
      ],
      "name": "Sketchfab_model"
    },
    {
      "children": [
        2
      ],
      "name": "root"
    },
    {
      "children": [
        3
      ],
      "matrix": [
        1.0,
        0.0,
        0.0,
        0.0,
        0.0,
        2.220446049250313e-16,
        1.0,
        0.0,
        0.0,
        -1.0,
        2.220446049250313e-16,
        0.0,
        0.0,
        0.0,
        0.0,
        1.0
      ],
      "name": "GLTF_SceneRootNode"
    },
    {
      "children": [
        4
      ],
      "matrix": [
        0.8201258790698245,
        -0.0013846944390514815,
        -0.5721814616896095,
        0.0,
        -0.5721756598059506,
        0.0031276425583961487,
        -0.8201251320241637,
        0.0,
        0.0029252018003459446,
        0.9999941502195587,
        0.0017727721483269399,
        0.0,
        0.0,
        0.0,
        0.0,
        1.0
      ],
      "name": "Coffee.CUP.low_1"
    },
    {
      "mesh": 0,
      "name": "Object_4"
    }
  ],
  "scene": 0,
  "scenes": [
    {
      "name": "Sketchfab_Scene",
      "nodes": [
        0
      ]
    }
  ]
}
